<mxfile host="app.diagrams.net" modified="2023-07-26T04:06:31.253Z" agent="Mozilla/5.0 (Windows NT 10.0; Win64; x64) AppleWebKit/537.36 (KHTML, like Gecko) Chrome/115.0.0.0 Safari/537.36 Edg/115.0.1901.183" version="21.6.5" etag="d9dXYdnL51brD_C-qEQ0" type="github">
  <diagram name="Trang-1" id="YS5UEWFVJR9cG9Uci2pZ">
    <mxGraphModel>
      <root>
        <mxCell id="0" />
        <mxCell id="1" parent="0" />
      </root>
    </mxGraphModel>
  </diagram>
</mxfile>
